<svg aria-hidden="true" style="width:0;height:0;position:absolute;overflow:hidden" xmlns="http://www.w3.org/2000/svg"><defs><symbol id="logo" viewBox="0 0 127 32"><path fill="#fff" style="fill:var(--color1,#fff)" d="M31.36 16.32C31.36 24.98 24.483 32 16 32S.64 24.98.64 16.32 7.517.64 16 .64s15.36 7.02 15.36 15.68z"/><path fill="#d41443" style="fill:var(--color2,#d41443)" d="M11.849.562C4.443 2.805 0 8.635 0 16.004c0 6.023 3.091 11.277 8.179 13.904 2.64 1.346 3.027.384.58-1.474-1.739-1.41-2.061-2.05-2.061-4.421 0-1.666-.386-3.011-.966-3.524-1.159-.961-1.288-3.46-.129-4.357.451-.384.902-1.666.966-2.819.322-4.229 4.894-8.201 9.467-8.201s9.145 3.973 9.466 8.201c.064 1.153.515 2.435.966 2.819 1.159.897 1.03 3.396-.129 4.357-.58.513-.966 1.858-.966 3.524 0 2.371-.322 3.011-2.061 4.421-2.705 2.114-1.932 2.883 1.095 1.025 4.25-2.627 7.406-8.33 7.406-13.391C31.813 5.944 21.252-2.257 11.85.562z"/><path fill="#d41443" style="fill:var(--color2,#d41443)" d="M12.686 7.994c-1.159.513-2.125 1.153-2.125 1.538 0 .705 3.477 1.986 5.474 1.986s5.474-1.281 5.474-1.986c0-.769-3.993-2.499-5.603-2.499-.644.064-2.125.449-3.22.961zM45.851 11.326c-.966.256-1.159 1.089-1.159 5.703v5.382h4.572l-.193-5.574c-.193-5.831-.451-6.279-3.22-5.51zM53.386 11.646c-2.125 1.153-2.898 2.563-2.898 5.318 0 3.78 2.061 5.574 5.86 5.318 2.576-.192 2.833-.384 3.027-1.986s.064-1.73-1.932-1.602c-2.061.192-2.125.064-2.125-2.05s.129-2.243 1.996-2.05c1.546.128 2.125-.128 2.383-1.089.129-.641 0-1.538-.386-1.922-.902-.897-4.25-.897-5.925.064zM61.049 11.71c-.193.513-.258 3.011-.129 5.638l.193 4.741h4.186c3.864 0 4.186-.128 4.379-1.474.193-1.217-.064-1.41-2.06-1.41-1.288 0-2.319-.32-2.319-.641 0-.384.902-.641 1.932-.641 1.481 0 1.932-.256 1.932-1.281s-.451-1.281-1.932-1.281c-1.03 0-1.932-.32-1.932-.641 0-.384.837-.641 1.868-.641 1.804 0 3.027-1.41 2.254-2.627-.58-.961-7.985-.705-8.372.256zM73.993 11.518c-2.125.833-2.962 2.307-3.027 4.998-.065 4.613 1.803 6.215 6.633 5.767 1.868-.128 2.189-.448 2.189-1.794 0-1.41-.257-1.602-2.061-1.41-1.546.128-2.125-.064-2.447-1.089-.58-1.986.644-3.588 2.705-3.588 1.224 0 1.868-.384 1.996-1.217.451-2.05-2.833-3.011-5.989-1.666zM81.914 11.262c-.323.256-.515 2.883-.515 5.831v5.382l2.06-.192c1.61-.128 2.19-.577 2.512-1.794l.386-1.602.515 1.73c.387 1.474.837 1.794 2.512 1.794 2.769 0 3.091-.448 1.932-2.691-.708-1.41-.837-2.114-.322-2.627.837-.833.902-3.652.129-4.87-.644-1.025-8.371-1.858-9.208-.961zm5.28 3.46c0 .705-.257 1.281-.644 1.281-.322 0-.644-.577-.644-1.281s.322-1.281.644-1.281c.387 0 .644.577.644 1.281zM93.441 11.326c-.258.192-.451 2.819-.451 5.767v5.318h4.186c4.057 0 4.186-.064 4.186-1.602 0-1.346-.322-1.602-1.932-1.602-1.03 0-1.932-.32-1.932-.641 0-.384.708-.641 1.61-.641 1.159 0 1.61-.32 1.61-1.281s-.451-1.281-1.61-1.281c-.902 0-1.61-.32-1.61-.641 0-.384.902-.641 1.932-.641 1.61 0 1.932-.256 1.932-1.602 0-1.538-.193-1.602-3.735-1.602-2.061 0-3.992.192-4.186.448zM106.45 11.262c-1.16.32-4.122 8.842-3.542 10.252.515 1.281 3.413 1.153 4.186-.192.579-1.089.644-1.089 1.803 0 1.482 1.281 4.701 1.474 4.701.256 0-.384-.644-2.947-1.482-5.574-1.288-4.229-1.674-4.806-3.027-4.934-.902 0-2.061.064-2.64.192zm1.803 5.831c-.193.641-.322.256-.322-.769 0-1.089.129-1.538.322-1.153.129.448.129 1.346 0 1.922zM115.723 11.326c-.58.192-.837 1.986-.837 5.703v5.382h1.868c1.61 0 1.932-.32 2.189-1.794.257-1.666.257-1.666.772-.32.258.833.902 1.474 1.352 1.474.515 0 1.224-.641 1.546-1.474.515-1.346.58-1.346.58.384.065 1.602.257 1.794 2.061 1.602l1.996-.192.065-5.318c.129-4.934.064-5.318-1.288-5.638-2.061-.513-3.799.705-4.379 3.076l-.451 2.114-.708-2.243c-.902-3.011-2.254-3.78-4.765-2.755zM9.016 11.967c-.193.256-.386 1.089-.386 1.922 0 1.474.064 1.474 7.406 1.474s7.406 0 7.406-1.474c0-2.178-.58-2.435-2.64-1.41-2.318 1.217-7.213 1.217-9.531 0-1.03-.513-1.996-.705-2.254-.513zM7.148 17.669c-1.03 1.089.708 1.538 5.731 1.538h5.409v2.243c0 1.217.322 2.243.644 2.243.386 0 .644-.961.644-2.178 0-2.114.129-2.243 2.576-2.435 1.417-.128 2.576-.513 2.576-.833 0-.705-16.872-1.281-17.581-.577z"/><path fill="#d41443" style="fill:var(--color2,#d41443)" d="M8.629 23.308c0 3.524 1.224 4.229 7.406 4.229s7.406-.705 7.406-4.229c0-1.538-.322-2.178-.966-2.178-.58 0-.966.577-.966 1.538 0 3.588-4.894 3.908-5.603.384-.322-1.858-.515-1.922-3.8-1.922H8.629v2.178zM12.622 30.548c.386 2.05 6.955 1.858 6.955-.128 0-.705-.837-.961-3.606-.961-3.027 0-3.542.192-3.349 1.089z"/></symbol><symbol id="Vector-1" viewBox="0 0 19 32"><path fill="none" stroke="#d41443" style="stroke:var(--color1,#d41443)" stroke-linejoin="round" stroke-linecap="round" stroke-width="6.4" d="M3.2 3.2 16 16 3.2 28.8"/></symbol><symbol id="Ellipse-3" viewBox="0 0 32 32"><path fill="#ffa5ba" style="fill:var(--color1,#ffa5ba)" d="M32 16c0 8.837-7.163 16-16 16S0 24.837 0 16 7.163 0 16 0s16 7.163 16 16z"/></symbol><symbol id="Group-23" viewBox="0 0 39 32"><path fill="#fff" style="fill:var(--color1,#fff)" d="M38.737 6.316a6.316 6.316 0 1 1-12.633 0 6.316 6.316 0 0 1 12.633 0z"/><path fill="#d41443" style="fill:var(--color2,#d41443)" d="M8.601 11.475c-.362 0-.678-.426-.949-1.278a8.478 8.478 0 0 1-.387-2.46c0-.181.2-.381.6-.6.4-.232 1.007-.439 1.821-.62s1.698-.271 2.653-.271c3.706 0 5.559 1.298 5.559 3.893 0 .723-.155 1.401-.465 2.034s-.652 1.143-1.027 1.53a7.821 7.821 0 0 1-1.317 1.046 10.09 10.09 0 0 1-1.666.852h3.874c.077 0 .161.039.252.116.09.065.187.271.291.62.103.336.155.762.155 1.278 0 .504-.032.93-.097 1.278-.065.336-.142.581-.232.736-.194.349-.368.536-.523.562l-.097.019H8.563c-.813 0-1.22-1.272-1.22-3.816 0-.284.839-1.065 2.518-2.344.633-.465 1.214-.975 1.743-1.53s.794-1.007.794-1.356c0-.387-.291-.581-.872-.581s-1.194.149-1.84.445c-.633.297-.994.445-1.085.445zm21.794-1.607c0 1.304-.517 2.279-1.549 2.925.142.065.323.22.542.465.232.245.426.491.581.736.4.633.6 1.382.6 2.247 0 1.42-.51 2.466-1.53 3.138s-2.421 1.007-4.203 1.007a14.08 14.08 0 0 1-2.499-.213c-.775-.155-1.369-.323-1.782-.504-.413-.194-.62-.368-.62-.523 0-.71.077-1.336.232-1.879s.329-.923.523-1.143c.194-.232.381-.349.562-.349.052 0 .394.116 1.027.349s1.252.349 1.859.349c.62 0 .93-.194.93-.581 0-.529-.652-.813-1.956-.852-.517-.013-.801-.026-.852-.039-.271-.09-.407-.659-.407-1.704s.136-1.62.407-1.724c.052-.026.336-.039.852-.039 1.304-.026 1.956-.291 1.956-.794 0-.387-.284-.581-.852-.581-.555 0-1.175.136-1.859.407s-1.059.407-1.123.407c-.297 0-.568-.433-.813-1.298s-.368-1.478-.368-1.84c0-.336.374-.678 1.123-1.027.826-.374 2.04-.562 3.641-.562 3.719 0 5.578 1.207 5.578 3.622z"/><path fill="#fff" style="fill:var(--color1,#fff)" d="M.736 30.316v-2.505H.294v-.419h.442v-.507c0-.283.071-.489.212-.619s.348-.195.619-.195h.295v.424h-.218c-.149 0-.255.031-.318.094-.063.059-.094.161-.094.307v.495h.719v.419h-.719v2.505H.737zm3.021.071c-.275 0-.523-.063-.743-.189s-.395-.303-.525-.531c-.126-.232-.189-.503-.189-.813s.065-.58.195-.808c.13-.232.305-.411.525-.536.224-.126.474-.189.749-.189s.523.063.743.189c.22.126.393.305.519.536.13.228.195.497.195.808s-.065.582-.195.813c-.13.228-.307.405-.531.531-.22.126-.468.189-.743.189zm0-.425a.926.926 0 0 0 .826-.495c.09-.165.136-.369.136-.613s-.045-.448-.136-.613c-.086-.165-.202-.289-.348-.371s-.301-.124-.466-.124a.926.926 0 0 0-.826.495c-.09.165-.136.369-.136.613s.045.448.136.613c.09.165.206.289.348.371a.924.924 0 0 0 .466.124zm3.489.425c-.275 0-.523-.063-.743-.189s-.395-.303-.525-.531c-.126-.232-.189-.503-.189-.813s.065-.58.195-.808c.13-.232.305-.411.525-.536.224-.126.474-.189.749-.189s.523.063.743.189c.22.126.393.305.519.536.13.228.195.497.195.808s-.065.582-.195.813c-.13.228-.307.405-.531.531-.22.126-.468.189-.743.189zm0-.425a.926.926 0 0 0 .826-.495c.09-.165.136-.369.136-.613s-.045-.448-.136-.613c-.086-.165-.202-.289-.348-.371s-.301-.124-.466-.124a.926.926 0 0 0-.826.495c-.09.165-.136.369-.136.613s.045.448.136.613c.09.165.206.289.348.371a.924.924 0 0 0 .466.124zm3.482.425a1.45 1.45 0 0 1-.766-.2 1.396 1.396 0 0 1-.507-.548c-.118-.232-.177-.495-.177-.79s.061-.556.183-.784c.122-.232.291-.413.507-.542.216-.134.472-.2.766-.2.24 0 .452.049.637.147s.328.236.43.413v-1.81h.495v4.244h-.448l-.047-.483c-.094.141-.23.269-.407.383s-.399.171-.666.171zm.053-.431a.98.98 0 0 0 .519-.136.945.945 0 0 0 .354-.389c.086-.165.13-.358.13-.578s-.043-.413-.13-.578a.9.9 0 0 0-.354-.383.952.952 0 0 0-.519-.141.958.958 0 0 0-.873.524c-.083.165-.124.358-.124.578s.041.413.124.578a.987.987 0 0 0 .354.389c.153.09.326.136.519.136zm5.038.36c-.267 0-.477-.065-.631-.195s-.23-.363-.23-.701v-1.609h-.507v-.419h.507l.065-.701h.43v.701h.861v.419h-.861v1.609c0 .185.037.31.112.377.075.063.206.094.395.094h.307v.424h-.448zm1.124 0v-2.924h.448l.041.56c.09-.193.228-.346.413-.46s.413-.171.684-.171v.519h-.136c-.173 0-.332.031-.477.094-.145.059-.261.161-.348.307s-.13.346-.13.601v1.474h-.495zm4.7-2.924v2.924h-.448l-.029-.525c-.094.185-.23.33-.407.436s-.377.159-.601.159c-.346 0-.623-.104-.831-.312-.204-.212-.307-.536-.307-.973v-1.709h.495v1.656c0 .609.252.914.755.914.252 0 .46-.09.625-.271.169-.185.253-.446.253-.784v-1.515h.495zm2.159 2.995c-.279 0-.531-.063-.755-.189a1.437 1.437 0 0 1-.525-.536c-.126-.232-.189-.501-.189-.808s.063-.574.189-.802c.13-.232.305-.411.525-.536.224-.13.476-.195.755-.195.346 0 .637.09.872.271.24.181.391.422.454.725h-.507a.641.641 0 0 0-.289-.419.944.944 0 0 0-.536-.153.926.926 0 0 0-.82.495c-.09.165-.136.369-.136.613s.045.448.136.613c.09.165.208.291.354.377a.924.924 0 0 0 .466.124.973.973 0 0 0 .536-.147.664.664 0 0 0 .289-.43h.507c-.059.295-.208.534-.448.719s-.532.277-.878.277zm2.018-.071v-4.244h.495v2.552l1.197-1.232h.607l-1.297 1.32 1.462 1.603h-.631L26.315 28.8v1.515h-.495zm3.917.071c-.35 0-.641-.088-.872-.265s-.367-.417-.407-.719h.507a.716.716 0 0 0 .242.401c.134.11.312.165.536.165.208 0 .362-.043.46-.13a.42.42 0 0 0 .147-.318c0-.177-.065-.295-.195-.354a2.484 2.484 0 0 0-.536-.159c-.157-.031-.314-.077-.472-.136s-.289-.141-.395-.248a.593.593 0 0 1-.159-.43c0-.255.094-.464.283-.625.193-.165.452-.248.778-.248.31 0 .564.079.76.236.2.153.316.373.348.66h-.489a.496.496 0 0 0-.195-.348.664.664 0 0 0-.43-.13c-.177 0-.314.037-.413.112a.359.359 0 0 0-.141.295c0 .118.061.21.183.277.126.067.295.124.507.171.181.039.352.088.513.147a.92.92 0 0 1 .401.253c.106.11.159.271.159.483a.802.802 0 0 1-.301.654c-.2.169-.474.253-.819.253z"/></symbol><symbol id="Group-22" viewBox="0 0 30 32"><path fill="#fff" style="fill:var(--color1,#fff)" d="M29.922 6.234a6.234 6.234 0 1 1-12.468 0 6.234 6.234 0 0 1 12.468 0z"/><path fill="#d41443" style="fill:var(--color2,#d41443)" d="M8.252 19.905c0 .14-.389.255-1.166.344-.777.076-1.555.115-2.332.115s-1.281-.032-1.51-.096c-.217-.076-.325-.198-.325-.363v-8.258H.969c-.217 0-.325-.465-.325-1.396S.752 8.48.969 7.728c.064-.242.739-.465 2.026-.669s2.275-.306 2.963-.306c.688 0 1.147.025 1.376.076s.401.115.516.191c.115.064.204.14.268.229.089.14.134.274.134.401v12.254zm7.439-7.895c.115-.102.421-.236.918-.401s1.058-.249 1.682-.249c.637 0 1.172.096 1.606.287.446.178.79.408 1.032.688.255.28.452.631.593 1.051.229.688.344 1.389.344 2.103s-.032 1.255-.096 1.625c-.051.357-.191.758-.421 1.204a3.244 3.244 0 0 1-.898 1.128c-.37.306-.905.567-1.606.784-.688.204-1.498.306-2.428.306-2.001 0-3.511-.548-4.531-1.644-1.02-1.109-1.529-2.893-1.529-5.353 0-2.472.478-4.25 1.434-5.334.956-1.096 2.409-1.644 4.359-1.644 1.338 0 2.498.102 3.479.306.994.191 1.491.421 1.491.688 0 .331-.127.911-.382 1.74-.242.828-.465 1.243-.669 1.243a4.72 4.72 0 0 1-.573-.096c-.867-.178-1.657-.268-2.37-.268s-1.173.178-1.376.535c-.204.344-.306.854-.306 1.529.051-.064.134-.14.249-.229zm.421 1.72c-.37 0-.554.688-.554 2.065 0 1.364.185 2.045.554 2.045.395 0 .593-.682.593-2.046 0-1.376-.198-2.065-.593-2.065z"/><path fill="#fff" style="fill:var(--color1,#fff)" d="M9.658 30.407c-.275 0-.524-.062-.745-.186a1.422 1.422 0 0 1-.518-.529c-.124-.229-.186-.495-.186-.797s.062-.566.186-.791c.128-.229.301-.405.518-.529.221-.128.469-.192.745-.192.341 0 .628.089.861.268.237.178.386.417.448.716h-.5a.633.633 0 0 0-.285-.413.93.93 0 0 0-.529-.151.904.904 0 0 0-.809.489c-.089.163-.134.365-.134.605s.045.442.134.605a.952.952 0 0 0 .349.372.923.923 0 0 0 .46.122.964.964 0 0 0 .529-.145.655.655 0 0 0 .285-.425h.5c-.058.291-.206.527-.442.71s-.526.273-.867.273zm2.952 0c-.241 0-.44-.041-.599-.122a.83.83 0 0 1-.471-.768c0-.295.113-.522.337-.681s.531-.239.919-.239h.78v-.035c0-.252-.066-.442-.198-.57-.132-.132-.308-.198-.529-.198a.854.854 0 0 0-.495.145.617.617 0 0 0-.256.413h-.5a.934.934 0 0 1 .209-.529c.124-.143.277-.252.46-.326.182-.078.376-.116.582-.116.403 0 .706.109.908.326.206.213.308.498.308.855v1.775h-.436l-.029-.518a1.152 1.152 0 0 1-.361.419c-.155.113-.365.169-.628.169zm.075-.413a.79.79 0 0 0 .477-.145c.136-.097.239-.223.308-.378s.105-.318.105-.489v-.006h-.739c-.287 0-.491.05-.611.151a.459.459 0 0 0-.175.367.46.46 0 0 0 .163.367c.113.089.27.134.471.134zm2.27.344v-2.473h-.436v-.413h.436v-.5c0-.279.07-.483.209-.611s.343-.192.611-.192h.291v.419h-.215c-.147 0-.252.031-.314.093-.062.058-.093.159-.093.303v.489h.71v.413h-.71v2.473h-.489zm2.964.069c-.275 0-.52-.062-.733-.186a1.391 1.391 0 0 1-.506-.529 1.671 1.671 0 0 1-.18-.797c0-.303.06-.566.18-.791a1.29 1.29 0 0 1 .5-.529 1.45 1.45 0 0 1 .751-.192c.279 0 .52.064.721.192.206.124.363.289.471.495a1.408 1.408 0 0 1 .157.791v.145h-2.298c.012.221.062.405.151.553a.952.952 0 0 0 .343.326c.14.074.287.111.442.111.202 0 .37-.047.506-.14s.235-.219.297-.378h.483a1.311 1.311 0 0 1-.448.669c-.217.175-.497.262-.838.262zm0-2.612a.984.984 0 0 0-.623.215c-.178.14-.281.345-.308.617h1.815c-.012-.26-.101-.463-.268-.611s-.372-.221-.617-.221zm3.12 2.612c-.345 0-.632-.087-.861-.262s-.363-.411-.401-.71h.5a.713.713 0 0 0 .239.396c.132.109.308.163.529.163.206 0 .357-.043.454-.128a.413.413 0 0 0 .145-.314c0-.175-.064-.291-.192-.349a2.436 2.436 0 0 0-.529-.157c-.155-.031-.31-.076-.465-.134s-.285-.14-.39-.244a.586.586 0 0 1-.157-.425c0-.252.093-.458.279-.617.19-.163.446-.244.768-.244.306 0 .557.078.751.233.198.151.312.369.343.652h-.483a.485.485 0 0 0-.192-.343.655.655 0 0 0-.425-.128c-.175 0-.31.037-.407.111a.354.354 0 0 0-.14.291c0 .116.06.207.18.273.124.066.291.122.5.169.178.039.347.087.506.145a.904.904 0 0 1 .396.25c.105.109.157.268.157.477a.793.793 0 0 1-.297.646c-.198.167-.467.25-.809.25z"/></symbol><symbol id="modal-open-btn" viewBox="0 0 46 32"><path fill="none" stroke="#d41443" style="stroke:var(--color1,#d41443)" stroke-width="2.286" d="M0 2.286h45.714M0 16h45.714M0 29.714h45.714"/></symbol><symbol id="close-menu" viewBox="0 0 32 32"><path fill="none" stroke="#fff" style="stroke:var(--color1,#fff)" stroke-width="2" d="m2.519 2 26.963 28M2 29.481 30 2.518"/></symbol></defs></svg>