<svg aria-hidden="true" style="position: absolute; width: 0; height: 0; overflow: hidden;" version="1.1" xmlns="http://www.w3.org/2000/svg" xmlns:xlink="http://www.w3.org/1999/xlink">
<defs>
<symbol id="icon-arrow-right" viewBox="0 0 32 32">
<path d="M31.489 14.757l-11.556-11.557c-0.33-0.33-0.77-0.511-1.238-0.511s-0.909 0.181-1.239 0.511l-1.049 1.050c-0.33 0.329-0.511 0.769-0.511 1.238s0.182 0.924 0.511 1.253l6.742 6.757h-21.419c-0.966 0-1.729 0.756-1.729 1.722v1.484c0 0.966 0.763 1.798 1.729 1.798h21.495l-6.818 6.794c-0.33 0.33-0.511 0.758-0.511 1.227s0.182 0.903 0.511 1.232l1.049 1.046c0.33 0.33 0.769 0.51 1.239 0.51s0.908-0.182 1.238-0.512l11.556-11.556c0.331-0.331 0.513-0.773 0.511-1.242 0.001-0.471-0.181-0.913-0.511-1.244z"></path>
</symbol>
<!-- <symbol id="right-arrow" viewBox="0 0 32 32">
<path d="M31.489 14.757l-11.556-11.557c-0.33-0.33-0.77-0.511-1.238-0.511s-0.909 0.181-1.239 0.511l-1.049 1.050c-0.33 0.329-0.511 0.769-0.511 1.238s0.182 0.924 0.511 1.253l6.742 6.757h-21.419c-0.966 0-1.729 0.756-1.729 1.722v1.484c0 0.966 0.763 1.798 1.729 1.798h21.495l-6.818 6.794c-0.33 0.33-0.511 0.758-0.511 1.227s0.182 0.903 0.511 1.232l1.049 1.046c0.33 0.33 0.769 0.51 1.239 0.51s0.908-0.182 1.238-0.512l11.556-11.556c0.331-0.331 0.513-0.773 0.511-1.242 0.001-0.471-0.181-0.913-0.511-1.244z"></path>
</symbol> -->
</defs>
</svg>